<?xml version="1.0" encoding="utf-8"?>
<!-- Generator: Adobe Illustrator 28.0.0, SVG Export Plug-In . SVG Version: 6.00 Build 0)  -->
<svg version="1.1" id="Calque_1" xmlns="http://www.w3.org/2000/svg" xmlns:xlink="http://www.w3.org/1999/xlink" x="0px" y="0px"
	 viewBox="0 0 882.96 322.41" style="enable-background:new 0 0 882.96 322.41;" xml:space="preserve">
<style type="text/css">
	.st0{fill:#113967;}
	.st1{fill:#77B227;}
</style>
<g>
	<path class="st0" d="M44.48,187.68h11.43v-11.77h20.85v43.17H55.91v-12.36H44.48v26.92h16.05v19.64H0v-19.64h11.78v-76.27H0v-19.64
		h109.29v38.18H83.3v-18.54H44.48V187.68z"/>
	<path class="st0" d="M159.88,188.45c1.69-4.46,3.58-8.04,5.67-10.75c5.52-7.11,12.09-10.67,19.71-10.67c3.49,0,6.45,0.85,8.9,2.54
		v28.7c-3.84-1.02-6.95-1.52-9.33-1.52c-5.64,0-10.53,1.52-14.65,4.57c-2.85,2.09-4.87,4.49-6.06,7.2
		c-1.19,2.71-1.79,6.29-1.79,10.75v14.81h12.56v19.22h-56.35v-19.22h9.86v-45.29h-9.86v-19.21h41.34V188.45z"/>
	<path class="st0" d="M204.8,196.15c0.81-19.41,15.5-29.12,44.05-29.12c12.91,0,22.94,2.09,30.09,6.26
		c4.77,2.77,8.24,6.26,10.42,10.5c2.18,4.23,3.27,9.65,3.27,16.25v34.03h9.94v19.22h-38.29v-14.22
		c-3.55,5.98-7.73,10.27-12.56,12.87c-4.83,2.59-10.93,3.89-18.32,3.89c-10.53,0-18.61-2.45-24.25-7.36
		c-5.7-5.02-8.55-11.57-8.55-19.64c0-10.78,5.44-18.71,16.31-23.79c6.57-3.05,16.83-4.63,30.79-4.74
		c7.15-0.06,11.92-0.14,14.31-0.25c-0.06-4.35-0.22-7.25-0.48-8.72c-0.26-1.47-0.89-2.82-1.88-4.06c-2.15-2.76-5.73-4.15-10.73-4.15
		c-4.3,0-7.41,0.99-9.33,2.96c-1.92,1.98-3.02,5.33-3.31,10.07H204.8z M262.8,215.7c-1.86-0.11-3.17-0.17-3.92-0.17
		c-7.04,0-12.36,0.42-15.96,1.27c-7.33,1.69-10.99,5.3-10.99,10.84c0,2.93,1.03,5.22,3.1,6.86c2.06,1.64,4.93,2.45,8.59,2.45
		c5.64,0,10.02-1.71,13.13-5.12C259.85,228.41,261.87,223.04,262.8,215.7z"/>
	<path class="st0" d="M350.55,186.84c2.5-6.21,5.84-10.83,10.03-13.88c5.46-3.95,12.59-5.93,21.37-5.93
		c20.29,0,30.44,9.57,30.44,28.7v38.35h9.86v19.22H370.7v-19.22h7.76v-31.83c0-4.51-0.96-7.84-2.88-9.99
		c-1.92-2.14-4.88-3.22-8.9-3.22c-4.07,0-7.31,1.33-9.72,3.98c-2.41,2.65-3.62,6.18-3.62,10.58v30.47h7.76v19.22h-51.55v-19.22h9.86
		v-45.29h-9.86v-19.21h40.99V186.84z"/>
	<path class="st0" d="M520.63,223.49c0,5.87-1.31,11-3.93,15.41c-6.98,11.51-19.97,17.27-38.99,17.27c-11.69,0-21.6-2.43-29.74-7.28
		c-12.91-7.79-19.36-20.6-19.36-38.43c0-14.73,4.36-25.93,13.08-33.61c7.56-6.6,17.01-9.9,28.35-9.9c11.63,0,19.92,4.29,24.86,12.87
		v-10.24h25.64v32.93h-27.91c-0.29-9.93-4.8-14.9-13.52-14.9c-10.47,0-15.7,7.65-15.7,22.94c0,17.55,5.17,26.33,15.53,26.33
		c4.01,0,7.18-1.13,9.51-3.39c2.32-2.26,3.72-5.59,4.19-9.99H520.63z"/>
	<path class="st0" d="M572.01,184.3c4.88-11.51,14.48-17.27,28.78-17.27c8.84,0,15.84,1.86,21.02,5.59
		c6.34,4.57,9.51,11.46,9.51,20.65v40.8h9.86v19.22h-52.25v-19.22h8.46v-30.64c0-4.57-0.78-7.93-2.35-10.07
		c-2.09-2.88-5.06-4.32-8.9-4.32c-3.95,0-7.24,1.24-9.86,3.72c-1.57,1.52-2.67,3.46-3.31,5.8c-0.64,2.34-0.96,5.63-0.96,9.86v25.65
		h8.46v19.22h-52.25v-19.22h9.86V152.3h-9.86v-19.22h43.79V184.3z"/>
	<path class="st0" d="M691.94,169.57v64.5h9.94v19.22h-53.73v-19.22h9.86v-45.29h-9.86v-19.21H691.94z M658.19,133.08h33.84v27.77
		h-33.84V133.08z"/>
	<path class="st0" d="M750.47,186.84c2.5-6.21,5.84-10.83,10.03-13.88c5.46-3.95,12.59-5.93,21.37-5.93
		c20.29,0,30.44,9.57,30.44,28.7v38.35h9.86v19.22h-51.55v-19.22h7.76v-31.83c0-4.51-0.96-7.84-2.88-9.99
		c-1.92-2.14-4.88-3.22-8.9-3.22c-4.07,0-7.31,1.33-9.72,3.98c-2.41,2.65-3.62,6.18-3.62,10.58v30.47h7.76v19.22h-51.55v-19.22h9.86
		v-45.29h-9.86v-19.21h40.99V186.84z"/>
	<path class="st0" d="M873.02,169.57v64.5h9.94v19.22h-53.73v-19.22h9.86v-45.29h-9.86v-19.21H873.02z M839.26,133.08h33.84v27.77
		h-33.84V133.08z"/>
</g>
<g>
	<path class="st1" d="M141.88,74.67c-0.41,11.89-0.59,23.75-0.56,35.56c-0.02,1.39-0.03,1.53-0.7,1.85
		c-0.73,0.35-0.98,0.14-1.93-0.59c-9.14-7.46-18.47-14.78-27.97-21.94c4.79,9.57,9.58,19.14,14.37,28.71
		c0.45,0.9,0.11,1.14-0.61,1.51c-0.99,0.5-1.98,1-2.96,1.51c-0.6,0.17-0.77-0.01-1.11-0.69c-6-11.77-12-23.55-18-35.32
		c-0.4-0.79-0.32-1.11,0.64-1.6c1.45-0.74,2.9-1.48,4.35-2.21c0.96-0.48,1.21-0.47,2.04,0.24c9.3,6.82,18.44,13.78,27.39,20.89
		c0.01-11.35,0.22-22.75,0.64-34.18c0.08-1.21,0.1-1.35,1.21-1.84c1.5-0.67,3-1.34,4.5-2c0.92-0.4,1.31-0.57,1.71,0.35
		c5.29,12.2,10.58,24.39,15.87,36.59c0.29,0.84,0.15,1.03-0.83,1.47c-1.15,0.51-2.3,1.02-3.45,1.53c-0.98,0.44-1.16,0.39-1.57-0.53
		C150.55,94.19,146.21,84.43,141.88,74.67z"/>
	<path class="st1" d="M186.72,74.07c-4.59,1.76-9.17,3.57-13.74,5.43c-0.13,5.65-0.21,11.29-0.24,16.92c-0.01,1.03-0.2,1.11-1,1.45
		c-0.97,0.41-1.94,0.82-2.91,1.23c-0.44,0.19-0.99,0.42-1.2-0.07c-0.02-0.06-0.01-0.9-0.06-1.01c0.25-14.43,0.81-28.91,1.68-43.44
		c0.05-0.85,0.2-1.04,0.93-1.33c0.95-0.37,1.9-0.75,2.84-1.12c0.49-0.13,0.64-0.12,1.2,0.36c10.48,10.1,20.68,20.38,30.6,30.84
		c0.25,0.29,0.47,0.52,0.57,0.81c0.18,0.5-0.2,0.64-0.7,0.82c-1.45,0.53-2.9,1.06-4.34,1.6c-1.07,0.4-1.19,0.44-1.88-0.25
		C194.6,82.2,190.68,78.12,186.72,74.07z M184.17,71.42c-3.53-3.71-7.09-7.39-10.68-11.05c-0.18,5.15-0.32,10.3-0.42,15.44
		C176.76,74.32,180.46,72.86,184.17,71.42z"/>
	<path class="st1" d="M216.92,39.37c-7.74,2.5-11.88,10.73-8.56,20.38c3.58,10.39,12.5,15.93,21.6,13.02
		c3.32-1.07,5.84-2.91,8.18-5.42c0.91-0.96,1.27-1.38,1.92-1.58c0.78-0.23,1.59,0.14,1.82,0.94c0.58,2-3.67,7.89-11.91,10.54
		c-13.78,4.47-24.06-2.91-27.96-13.89c-3.37-9.47-1.21-22.54,14.41-27.63c10-3.21,17.17,0.15,18.02,3.1c0.47,1.59-0.7,3.06-2.3,3.54
		c-0.87,0.26-2.07,0.38-3.38-0.58C227.06,40.46,223.1,37.38,216.92,39.37z"/>
	<path class="st1" d="M272.75,43.31c-6.55,1.62-13.08,3.33-19.6,5.13c1.66,6.09,3.31,12.18,4.97,18.27
		c0.28,1.03-0.03,1.18-0.93,1.43c-1.31,0.36-2.61,0.73-3.91,1.1c-0.83,0.24-1.19,0.21-1.46-0.76c-3.6-12.76-7.19-25.51-10.79-38.27
		c-0.21-0.74,0-1.05,0.95-1.32c1.38-0.39,2.76-0.78,4.14-1.17c0.94-0.32,1.31-0.3,1.56,0.62c1.5,5.5,2.99,10.99,4.49,16.49
		c6.55-1.81,13.11-3.53,19.7-5.16c-1.33-5.48-2.66-10.96-3.99-16.44c-0.21-0.86-0.29-1.21,0.95-1.46c1.39-0.34,2.78-0.68,4.17-1.01
		c1.03-0.25,1.3-0.31,1.53,0.67c3.03,12.96,6.05,25.93,9.08,38.89c0.22,0.92-0.17,1.02-1.01,1.22c-1.32,0.32-2.63,0.63-3.94,0.96
		c-1.03,0.25-1.21,0.12-1.43-0.81C275.73,55.58,274.24,49.44,272.75,43.31z"/>
	<path class="st1" d="M302.53,55.87c0.22,1.05-0.09,1.23-1.06,1.44c-1.3,0.28-2.6,0.55-3.9,0.84c-0.78,0.17-1.26,0.16-1.48-0.89
		c-2.77-12.88-5.53-25.76-8.3-38.64c-0.2-0.93,0.01-1.28,1.06-1.45c1.37-0.3,2.75-0.59,4.12-0.88c0.96-0.2,1.4-0.17,1.59,0.76
		C297.22,29.97,299.88,42.92,302.53,55.87z"/>
	<path class="st1" d="M345.19,39.26c-1.43-10.13-2.86-20.25-4.3-30.38c-0.11-0.76,0-1.02,0.54-1.22c1.2-0.17,2.41-0.35,3.61-0.52
		c0.9-0.12,1.07,0.09,1.18,0.91c1.76,13.14,3.53,26.27,5.29,39.41c0.13,1-0.12,1.09-0.97,1.21c-0.83,0.12-1.66,0.23-2.49,0.35
		c-0.66,0.04-0.88-0.05-1.56-0.61c-10.27-9.58-20.92-18.94-31.94-28.06c1.91,10.69,3.83,21.38,5.74,32.07c0.12,0.64,0.11,1-0.4,1.16
		c-0.12,0.08-2.27,0.48-3.38,0.69c-0.91,0.17-1.16-0.08-1.32-0.9c-2.42-12.99-4.85-25.98-7.27-38.97c-0.17-0.93,0-1.15,1.1-1.36
		c1.33-0.25,2.67-0.5,4-0.75c0.9-0.17,0.97-0.18,1.81,0.57C325.3,21.47,335.41,30.27,345.19,39.26z"/>
	<path class="st1" d="M368.8,26.18c0.58,5.39,1.15,10.78,1.73,16.17c5.96-0.66,11.92-1.25,17.88-1.76c0.86-0.07,1.26-0.11,1.34,0.84
		c0.05,0.63,0.1,1.26,0.15,1.9c0.07,0.89-0.39,0.98-1.18,1.05c-7.65,0.66-15.29,1.44-22.92,2.34c-0.99,0.12-1.32,0.1-1.44-0.9
		c-1.51-13.05-3.03-26.1-4.54-39.14c-0.12-1,0.04-1.44,1.23-1.58c8.07-0.95,16.16-1.78,24.26-2.48c0.77-0.06,1.33-0.05,1.4,0.78
		c0.06,0.77,0.17,2.07,0.11,2.25c-0.03,0.54-0.3,0.68-1.2,0.76c-6.25,0.54-12.49,1.15-18.73,1.84c0.51,4.74,1.01,9.48,1.52,14.22
		c5.17-0.57,10.34-1.09,15.52-1.56c0.75-0.07,1.29-0.11,1.37,0.77c0.07,0.77,0.18,2.13,0.13,2.31c-0.1,0.49-0.43,0.58-1.18,0.64
		C379.08,25.09,373.94,25.61,368.8,26.18z"/>
	<path class="st1" d="M415.12,19.47c3.48,1.3,10.59,4.07,10.8,11.62c0.18,7-5.68,12.1-14.24,12.56c-10.6,0.59-15.08-5.44-15.27-8
		c-0.13-1.9,1.4-3.02,2.95-3.13c1.94-0.13,2.83,1.12,3.64,2.31c1.12,1.78,3.4,5.36,8.96,5.05c4.9-0.26,7.9-3.47,7.77-7.32
		c-0.19-5.1-4.92-6.87-10.26-8.71c-1.25-0.45-2.5-0.89-3.75-1.33c-2.77-0.97-9.84-3.39-10.35-10.43
		c-0.46-6.32,4.8-11.57,13.71-12.06c8.35-0.45,14.02,3.59,14.1,6.55c0.05,1.54-1.16,2.77-2.89,2.84c-1.73,0.07-2.6-0.9-3.4-1.94
		c-1.46-1.77-3.52-4.18-7.98-3.94c-4.61,0.25-7.56,3.49-7.34,6.92c0.28,4.56,4.64,5.93,9.93,7.73
		C412.71,18.63,413.92,19.05,415.12,19.47z"/>
	<path class="st1" d="M474.9,25.61c-4.85-0.16-9.7-0.27-14.55-0.34c-2.28,5.15-4.51,10.32-6.7,15.49c-0.4,0.95-0.6,0.95-1.46,0.94
		c-1.04,0-2.07,0-3.11,0c-0.46,0-1.06,0.01-1.06-0.53c0-0.06,0.33-0.83,0.33-0.95c5.74-13.19,11.79-26.32,18.16-39.36
		c0.37-0.76,0.58-0.88,1.35-0.86c1,0.02,2.01,0.05,3.01,0.07c0.49,0.07,0.63,0.14,0.96,0.8c5.64,13.38,10.96,26.81,15.97,40.3
		c0.11,0.36,0.23,0.66,0.21,0.96c-0.03,0.53-0.43,0.51-0.96,0.49c-1.52-0.08-3.04-0.15-4.56-0.22c-1.12-0.05-1.26-0.06-1.61-0.96
		C478.94,36.16,476.94,30.88,474.9,25.61z M473.6,22.18c-1.78-4.79-3.6-9.56-5.46-14.34c-2.14,4.68-4.24,9.37-6.3,14.06
		C465.76,21.97,469.68,22.06,473.6,22.18z"/>
	<path class="st1" d="M525.55,28.18c-3.06-0.31-6.12-0.6-9.19-0.88c-1.08-0.1-1.28-0.17-1.18-1.23c0.06-0.61,0.11-1.22,0.17-1.83
		c0.18-0.52,0.66-0.48,1.34-0.42c4.84,0.43,9.68,0.91,14.52,1.44c1.23,0.08,1.17,0.55,1.08,1.37c-0.48,4.13-0.95,8.25-1.43,12.38
		c-0.3,2.06-0.33,2.29-1.24,3.15c-2.48,2.3-7.92,3.91-15.1,3.27c-15.88-1.38-22.21-11.95-21.56-23.47
		c0.72-12.78,10.59-21.33,24.57-20.11c11.64,1.04,16.87,7.72,16.52,10.59c-0.2,1.77-1.97,2.59-3.48,2.42
		c-1.79-0.19-2.5-1.33-3.75-3.37c-1.2-1.85-3.57-5.44-9.83-5.99c-7.82-0.69-15.88,4.25-16.68,15.97
		c-0.72,10.55,4.61,19.24,15.1,20.17c2.45,0.22,5.21,0.01,6.98-0.83c1.83-0.83,2.03-2.06,2.23-3.95
		C524.94,33.97,525.24,31.07,525.55,28.18z"/>
	<path class="st1" d="M547.03,8.19c0.16-1.24,0.41-1.51,1.35-1.68c1.59-0.28,7.28,0.12,10.9,0.65c3.82,0.54,9.58,1.6,12.93,4.97
		c0.62,0.58,3.65,3.61,2.75,8.81c-0.96,5.56-5.99,8.84-13.72,9.35c3.64,6.63,7.17,13.29,10.58,19.97c0.19,0.45,0.34,0.78,0.28,1.13
		c-0.1,0.59-0.76,0.47-1.15,0.41c-1.57-0.27-3.15-0.53-4.72-0.78c-1.24-0.2-1.25-0.2-1.75-1.24c-2.8-5.8-5.69-11.58-8.65-17.34
		c-0.48-0.91-1.36-2.41-3.19-2.67c-1.89-0.26-2.03,1.22-2.12,1.86c-0.73,5.15-1.45,10.3-2.18,15.45c-0.14,1-0.44,1.2-1.42,1.07
		c-1.27-0.17-2.54-0.34-3.82-0.5c-0.92-0.12-1.24-0.22-1.12-1.16C543.66,33.73,545.35,20.96,547.03,8.19z M551.19,26.88
		c3.92,0.6,4.39,0.68,5.42,0.76c5.95,0.38,10.61-1.82,11.48-7.09c1.4-8.5-7.06-9.8-10.04-10.21c-2.01-0.29-3.07-0.31-4.48-0.33
		C552.77,15.63,551.98,21.25,551.19,26.88z"/>
	<path class="st1" d="M586.68,53.44c-0.21,1.05-0.56,1.1-1.54,0.91c-1.31-0.25-2.61-0.49-3.92-0.73c-0.78-0.15-1.22-0.34-1.02-1.39
		c2.42-12.95,4.84-25.9,7.26-38.85c0.17-0.93,0.51-1.17,1.53-0.92c1.38,0.25,2.77,0.51,4.15,0.78c0.97,0.18,1.36,0.38,1.18,1.31
		C591.77,27.5,589.23,40.47,586.68,53.44z"/>
	<path class="st1" d="M625.09,22.82c-7.9-1.86-15.66,3.04-17.82,13.01c-2.32,10.74,2.41,20.09,11.69,22.31
		c3.39,0.81,6.49,0.54,9.79-0.4c1.27-0.35,1.8-0.52,2.46-0.36c0.78,0.2,1.29,0.94,1.08,1.75c-0.54,2.01-7.23,4.85-15.63,2.86
		c-14.06-3.3-18.98-14.92-16.63-26.34c2.02-9.85,10.59-19.93,26.54-16.2c10.19,2.42,14.6,9.01,13.8,11.98
		c-0.43,1.61-2.18,2.25-3.8,1.84c-0.88-0.22-1.97-0.74-2.59-2.25C633.19,28.99,631.4,24.31,625.09,22.82z"/>
	<path class="st1" d="M656.56,72.65c-11.67-3.48-18.25-14.39-14.92-26.9c2.71-10.18,12.51-19.43,27.67-14.94
		c13.92,4.18,17.63,16.39,14.83,26.32C680.61,69.6,668.72,76.28,656.56,72.65z M668,34.14c-2.16-0.64-4.48-0.77-6.65-0.41
		c-7.13,1.28-10.88,6.98-12.73,13.55c-0.63,2.23-0.97,4.23-1.03,6.18c-0.35,8.09,4.26,13.64,10.04,15.37
		c3.67,1.09,8.35,0.73,12.35-2.17c4.47-3.26,6.32-8.45,7.26-11.58C681.22,41.62,673.09,35.63,668,34.14z"/>
	<path class="st1" d="M693.72,79.74c5.58,1.99,11.15,4.04,16.69,6.17c0.95,0.36,0.97,0.69,0.69,1.41c-0.28,0.72-0.56,1.44-0.84,2.16
		c-0.32,0.45-0.76,0.28-1.33,0.06c-7.21-2.77-14.46-5.42-21.74-7.94c-0.95-0.33-0.96-0.71-0.75-1.33
		c4.39-12.55,8.79-25.09,13.18-37.64c0.31-0.9,0.67-0.84,1.49-0.61c1.43,0.5,2.86,1,4.29,1.51c1.01,0.36,1.06,0.63,0.85,1.43
		C702.08,56.56,697.9,68.15,693.72,79.74z"/>
	<path class="st1" d="M731.41,76.88c-2.07,5.01-4.15,10.02-6.22,15.02c5.65,2.31,11.29,4.7,16.9,7.17c0.81,0.36,1.18,0.52,0.8,1.39
		c-0.26,0.58-0.52,1.16-0.77,1.74c-0.36,0.81-0.82,0.67-1.56,0.35c-7.19-3.16-14.43-6.19-21.69-9.1c-0.94-0.38-1.23-0.56-0.85-1.49
		c4.91-12.18,9.83-24.36,14.74-36.55c0.38-0.93,0.73-1.24,1.86-0.79c7.69,3.08,15.34,6.3,22.95,9.64c0.72,0.32,1.22,0.6,0.88,1.36
		c-0.31,0.7-0.85,1.9-0.98,2.03c-0.28,0.46-0.59,0.45-1.44,0.08c-5.87-2.58-11.77-5.08-17.7-7.51c-1.82,4.41-3.65,8.81-5.47,13.21
		c4.91,2.01,9.8,4.07,14.67,6.19c0.71,0.31,1.22,0.53,0.86,1.35c-0.31,0.71-0.86,1.95-1,2.09c-0.32,0.38-0.66,0.3-1.37-0.01
		C741.16,80.93,736.3,78.87,731.41,76.88z"/>
	<path class="st1" d="M776.31,93.64c2.52,2.86,7.61,8.79,4.17,15.51c-3.2,6.23-10.96,7.8-18.9,4c-9.84-4.69-10.97-12.16-9.92-14.5
		c0.79-1.73,2.72-1.96,4.16-1.3c1.82,0.83,2.01,2.37,2.17,3.81c0.16,2.11,0.48,6.36,5.65,8.83c4.55,2.18,8.8,0.85,10.53-2.6
		c2.28-4.57-1.14-8.45-5.07-12.68c-0.91-1-1.82-2-2.74-3c-2.03-2.22-7.23-7.8-4.3-14.22c2.63-5.77,9.88-7.8,18.15-3.85
		c7.75,3.71,10.93,10.05,9.58,12.68c-0.7,1.38-2.38,1.86-3.97,1.07c-1.59-0.79-1.91-2.07-2.14-3.37c-0.46-2.28-1.17-5.4-5.31-7.38
		c-4.27-2.04-8.49-0.65-9.94,2.47c-1.94,4.14,1.33,7.48,5.23,11.66C774.54,91.73,775.42,92.69,776.31,93.64z"/>
</g>
<g>
	<path class="st1" d="M230.53,317.03h16.71c0.97,0,1.27,0.11,1.27,0.99c0,0.99,0,2.8-0.06,2.96c-0.06,0.5-0.36,0.6-1.09,0.6h-22.64
		c-0.36,0-1.33,0.06-1.33-0.82c0-0.33,0.18-0.66,0.67-1.21l12.71-15.08c3.51-4.23,5.75-7.62,5.75-11.25c0-3.89-2.72-6.96-6.84-6.96
		c-3.03,0-6.23,1.81-7.32,6.03c-0.3,1.43-0.54,2.52-1.94,2.52c-0.18,0-1.76,0-1.76-1.97c0-4.77,4.06-10.81,12.17-10.81
		c6.78,0,11.2,4.5,11.2,9.93c0,4.88-3.33,8.83-5.99,12.01L230.53,317.03z"/>
	<path class="st1" d="M272.84,299.98c5.75,0,10.71,3.78,10.71,10.8c0,6.31-4.42,11.63-12.35,11.63c-8.17,0-13.44-5.59-13.44-14.97
		c0-6.64,2.42-13.16,7.39-18.1c6.23-6.2,13.8-7.3,14.95-7.3c1.09,0,1.57,0.44,1.57,1.15c0,0.82-0.91,1.15-1.63,1.37
		c-2.85,0.93-4.36,1.43-6.84,3.13c-7.81,5.27-9.08,12.18-9.68,15.52C265.15,302.11,268.3,299.98,272.84,299.98z M271.39,319.23
		c4.48,0,6.96-3.46,6.96-7.46c0-3.02-1.69-8.34-7.99-8.34c-3.51,0-5.75,1.59-7.14,2.58C262.91,316.65,267.76,319.23,271.39,319.23z"
		/>
	<path class="st1" d="M316.72,310.56c0,4.28-2.91,11.85-13.5,11.85c-8.17,0-12.17-5.16-12.17-7.74c0-1.48,1.27-2.52,2.6-2.52
		c1.33,0,2,0.99,2.48,1.7c1.15,2.08,3.03,5.32,7.69,5.32c4.78,0,7.51-3.73,7.51-7.46c0-0.88,0-7.07-9.75-9.32
		c-1.94-0.44-2.36-0.55-2.36-1.32c0-0.82,0.67-1.04,1.51-1.32c2.6-0.88,8.35-2.8,8.35-8.01c0-2.63-2-5.76-6.24-5.76
		c-4.78,0-6.23,3.4-6.84,4.94c-0.54,1.21-0.85,2.08-2,2.08c-1.15,0-1.51-0.88-1.51-1.81c0-4.17,4.42-9.21,11.62-9.21
		c5.87,0,10.35,3.62,10.35,8.5c0,3.95-2.66,6.69-6.72,8.83C315.75,302.61,316.72,307.93,316.72,310.56z"/>
	<path class="st1" d="M338.51,322.41c-7.26,0-12.83-6.97-12.83-20.02c0-12.23,4.84-20.35,13.01-20.35c7.93,0,12.59,8.23,12.71,19.86
		C351.53,312.92,347.23,322.41,338.51,322.41z M338.51,285c-6.17,0-7.14,11.19-7.14,16.67c0,4.72,0.48,8.89,1.63,12.23
		c1.03,2.85,2.66,5.26,5.51,5.26c6.66,0,7.14-12.4,7.14-17.22C345.72,296.25,344.93,285,338.51,285z"/>
	<path class="st1" d="M372.53,322.41c-7.26,0-12.83-6.97-12.83-20.02c0-12.23,4.84-20.35,13.01-20.35c7.93,0,12.59,8.23,12.71,19.86
		C385.54,312.92,381.24,322.41,372.53,322.41z M372.53,285c-6.17,0-7.14,11.19-7.14,16.67c0,4.72,0.48,8.89,1.63,12.23
		c1.03,2.85,2.66,5.26,5.51,5.26c6.66,0,7.14-12.4,7.14-17.22C379.73,296.25,378.95,285,372.53,285z"/>
	<path class="st1" d="M444.74,290.93l-13.38,29.62c-0.55,1.15-0.61,1.26-1.27,1.26c-0.73,0-0.85-0.28-1.33-1.26l-13.56-29.62v29.67
		c0,0.93-0.36,0.99-1.09,0.99h-2.97c-0.54-0.11-0.61-0.33-0.61-1.04v-36.64c0-0.82,0.18-1.04,1.09-1.04h4.12
		c0.91,0,1.09,0.11,1.45,1.04l13.44,28.46l12.83-28.41c0.48-0.99,0.54-1.1,1.57-1.1h4.18c0.85,0,1.21,0,1.21,0.93v36.85
		c-0.06,0.82-0.24,0.93-1.21,0.93h-3.39c-0.97,0-1.09-0.11-1.09-1.04V290.93z"/>
	<path class="st1" d="M481,306.34h-13.01l-5.87,14.37c-0.36,0.88-0.54,0.88-1.33,0.88h-2.84c-0.42,0-0.97,0-0.97-0.49
		c0-0.06,0.3-0.77,0.3-0.88l15.68-36.53c0.3-0.71,0.49-0.82,1.15-0.82h2.6c0.42,0.05,0.55,0.11,0.85,0.71l15.74,36.63
		c0.12,0.33,0.24,0.6,0.24,0.88c0,0.49-0.36,0.49-0.85,0.49h-4.18c-1.03,0-1.15,0-1.51-0.82L481,306.34z M479.73,303.21l-5.21-13.11
		l-5.27,13.11H479.73z"/>
	<path class="st1" d="M500.06,284.95c0-1.15,0.18-1.43,0.97-1.7c1.33-0.44,6.24-0.77,9.38-0.77c3.33,0,8.35,0.16,11.68,2.74
		c0.61,0.44,3.63,2.74,3.63,7.62c0,5.21-3.87,8.99-10.59,10.53l12.29,16.67c0.24,0.38,0.42,0.66,0.42,0.99
		c0,0.55-0.61,0.55-0.97,0.55h-4.36c-1.15,0-1.15,0-1.76-0.88l-10.11-14.64c-0.54-0.77-1.51-2.03-3.15-2.03
		c-1.69,0-1.63,1.37-1.63,1.97v14.42c0,0.93-0.24,1.15-1.15,1.15h-3.51c-0.85,0-1.15-0.06-1.15-0.93V284.95z M505.87,301.57
		c3.51,0.06,3.93,0.06,4.84,0c5.27-0.44,9.02-3.13,9.02-8.06c0-7.95-7.38-7.95-9.99-7.95c-1.76,0-2.66,0.11-3.87,0.28V301.57z"/>
	<path class="st1" d="M551.03,285.39c-6.96,0-12.59,5.92-12.59,15.36c0,10.15,5.99,17.71,14.65,17.71c3.15,0,5.81-0.93,8.47-2.52
		c1.03-0.6,1.45-0.88,2.06-0.88c0.73,0,1.33,0.55,1.33,1.32c0,1.92-5.21,6.03-13.07,6.03c-13.19,0-19.73-9.71-19.73-20.46
		c0-9.32,5.45-19.91,19.43-19.91c8.96,0,14.04,4.83,14.04,7.68c0,1.54-1.33,2.52-2.78,2.52c-0.79,0-1.82-0.22-2.66-1.43
		C559.08,289.17,556.6,285.39,551.03,285.39z"/>
	<path class="st1" d="M596.97,303.05h-17.92v17.5c0,0.99-0.3,1.04-1.15,1.04h-3.69c-0.79,0-1.09-0.11-1.09-1.04V283.8
		c0-0.72,0.24-0.93,1.09-0.93h3.69c0.85-0.06,1.15,0.05,1.15,0.93v15.79h17.92v-15.63c0-0.82,0-1.15,1.09-1.1h3.69
		c0.91,0,1.15,0,1.15,0.93v36.91c0,0.88-0.36,0.88-1.15,0.88h-3.69c-0.97,0-1.09-0.16-1.09-1.04V303.05z"/>
	<path class="st1" d="M620.57,303.05v15.03h16.34c0.79,0,1.15,0,1.15,0.88v1.76c0,0.82-0.42,0.88-1.15,0.88h-21.06
		c-0.91,0-1.21-0.06-1.21-0.99v-36.42c0-0.93,0.18-1.31,1.21-1.31h21.06c0.67,0,1.15,0.05,1.15,0.82c0,0.71,0,1.92-0.06,2.08
		c-0.06,0.49-0.3,0.6-1.09,0.6h-16.34v13.22h13.8c0.67,0,1.15,0,1.15,0.82c0,0.71,0,1.97-0.06,2.14c-0.12,0.44-0.42,0.49-1.09,0.49
		H620.57z"/>
	<path class="st1" d="M662.03,300.25c3.03,1.37,9.26,4.17,9.26,11.13c0,6.47-5.51,11.03-13.38,11.03c-9.75,0-13.44-5.92-13.44-8.28
		c0-1.75,1.45-2.69,2.85-2.69c1.76,0,2.48,1.21,3.15,2.36c0.91,1.7,2.78,5.16,7.87,5.16c4.48,0,7.32-2.85,7.32-6.42
		c0-4.72-4.18-6.53-8.84-8.5l-3.27-1.43c-2.42-1.04-8.54-3.73-8.54-10.26c0-5.87,4.84-10.31,12.53-10.31
		c7.2,0,11.99,3.89,11.99,6.64c0,1.43-1.09,2.52-2.6,2.52c-1.51,0-2.24-0.93-2.91-1.92c-1.21-1.7-2.9-4-6.78-4
		c-4,0-6.72,2.79-6.72,5.98c0,4.22,3.75,5.76,8.35,7.68L662.03,300.25z"/>
</g>
</svg>
