<?xml version="1.0" encoding="UTF-8"?>
<svg version="1.1" id="Ebene_1" xmlns="http://www.w3.org/2000/svg" xmlns:xlink="http://www.w3.org/1999/xlink" x="0px" y="0px" width="135px" height="135px" viewBox="0 0 135 135" enable-background="new 0 0 135 135" xml:space="preserve">
<g>
	<defs>
		<rect id="SVGID_1_" x="-0.281" y="-0.281" width="135.281" height="135.281"/>
	</defs>
	<clipPath id="SVGID_2_">
		<use xlink:href="#SVGID_1_" overflow="visible"/>
	</clipPath>
	<path clip-path="url(#SVGID_2_)" fill="#FFFFFF" d="M-0.281,67.36c0-37.375,30.312-67.641,67.641-67.641   C104.69-0.281,135,30.031,135,67.36C135,104.69,104.69,135,67.36,135C30.031,135-0.281,104.69-0.281,67.36"/>
</g>
<g>
	<defs>
		<rect id="SVGID_3_" x="-0.281" y="-0.281" width="135.281" height="135.281"/>
	</defs>
	<clipPath id="SVGID_4_">
		<use xlink:href="#SVGID_3_" overflow="visible"/>
	</clipPath>
	<path clip-path="url(#SVGID_4_)" fill="#E1001A" d="M19.227,66.677c0-26.436,21.423-47.904,47.905-47.904   c26.481,0,47.926,21.422,47.926,47.904c0,26.436-21.423,47.906-47.926,47.906C40.695,114.583,19.227,93.159,19.227,66.677"/>
</g>
<g>
	<defs>
		<rect id="SVGID_5_" x="-0.281" y="-0.281" width="135.281" height="135.281"/>
	</defs>
	<clipPath id="SVGID_6_">
		<use xlink:href="#SVGID_5_" overflow="visible"/>
	</clipPath>
	<path clip-path="url(#SVGID_6_)" fill="#FFFFFF" d="M97.215,45.801c0,0-2.462,9.001-3.807,14.085H72.057   c0.454-1.755,1.139-2.895,1.139-2.895c0.637-3.146-4.695-3.942-5.47-0.684l-1.026,4.33c-0.229,0.913-1.368,3.418,4.787,3.464   h15.859c2.19,0,4.945,1.596,4.331,5.014l-3.191,13.104c-0.91,3.878-6.016,6.519-9.797,6.497H37.62l3.419-12.765   c7.247,0,22.425-0.044,22.425-0.044c-0.457,1.665-1.96,3.602,0.98,4.171c2.37,0.227,3.509-1.209,3.806-2.553l0.729-3.189   c0.616-2.278-3.077-2.622-4.9-2.622L46.599,71.78c-2.12-0.183-4.466-1.754-3.988-3.987l3.577-14.426   c1.253-5.834,5.241-7.521,11.076-7.521h39.951V45.801z"/>
</g>
</svg>